# Blender 3.3.1
# www.blender.org
mtllib arrow_right.mtl
o Cube
v -0.031156 -0.314259 -0.016457
v -0.161596 0.268306 0.043567
v 0.031156 0.314259 0.016457
v 0.161596 -0.268306 -0.043567
v -0.213127 0.290622 -0.285003
v -0.264659 0.312938 -0.613572
v -0.020375 0.336575 -0.312111
v -0.071906 0.358890 -0.640681
v 0.110064 -0.245990 -0.372136
v 0.058534 -0.223676 -0.700705
v -0.134219 -0.269627 -0.673596
v -0.082687 -0.291943 -0.345026
v -0.238893 0.301781 -0.449287
v -0.046140 0.347732 -0.476396
v 0.084300 -0.234834 -0.536420
v -0.108453 -0.280784 -0.509311
v -0.277541 0.318518 -0.695713
v -0.290424 0.324096 -0.777856
v -0.084789 0.364469 -0.722823
v -0.097672 0.370048 -0.804965
v 0.045651 -0.218096 -0.782848
v 0.032768 -0.212517 -0.864989
v -0.159984 -0.258469 -0.837880
v -0.147102 -0.264048 -0.755738
v -0.095571 -0.286364 -0.427168
v -0.226010 0.296202 -0.367145
v -0.033258 0.342153 -0.394255
v 0.097182 -0.240411 -0.454278
v -0.251776 0.307359 -0.531430
v -0.059023 0.353311 -0.558538
v 0.071416 -0.229254 -0.618562
v -0.121336 -0.275207 -0.591453
v -0.296866 0.326886 -0.818927
v -0.104113 0.372837 -0.846036
v 0.026326 -0.209728 -0.906061
v -0.166426 -0.255680 -0.878951
v 0.046140 -0.347732 0.476396
v 0.238893 -0.301781 0.449287
v 0.108453 0.280784 0.509311
v -0.084300 0.234834 0.536420
v 0.347593 -0.787251 0.399267
v 0.154841 -0.833203 0.426376
v -0.000246 0.766256 0.559331
v -0.192999 0.720304 0.586440
v 0.343726 -0.084140 1.563576
v 0.150974 -0.130092 1.590687
vn 0.2174 -0.9709 -0.1000
vn 0.9638 0.2298 -0.1355
vn -0.2174 0.9709 0.1000
vn -0.9638 -0.2298 0.1355
vn 0.9638 0.2298 -0.1356
vn -0.9638 -0.2298 0.1356
vn 0.1546 -0.0669 0.9857
vn -0.1546 0.0669 -0.9857
vn 0.1546 -0.0670 0.9857
vn 0.1548 -0.0669 0.9857
vn -0.0849 0.7459 0.6607
vn 0.2668 -0.8246 0.4989
vt 0.071856 0.692088
vt 0.826347 0.606226
vt 0.071856 0.692088
vt 0.610778 0.606226
vt 0.395210 0.665889
vt 0.000000 0.692088
vt 0.143713 0.692088
vt 0.610778 0.665889
vt 0.071856 0.572762
vt 0.610778 0.486900
vt 0.467066 0.785214
vt 0.970060 0.486900
vt 0.203593 0.787548
vt 0.215569 0.572762
vt 0.395210 0.785214
vt 0.000000 0.572762
vt 0.538922 0.785214
vt 0.203593 0.859143
vt 0.365269 0.787548
vt 0.143713 0.572762
vt 0.143713 0.572762
vt 0.610778 0.785214
vt 0.538922 1.000000
vt 0.365269 0.572762
vt 0.173653 0.787548
vt 0.143713 0.787548
vt 0.970060 0.701686
vt 0.173653 0.859143
vt 0.215569 0.787548
vt 0.071856 0.572762
vt 0.826347 0.486900
vt 0.467066 1.000000
vt 0.772455 0.785214
vt 0.961908 0.000000
vt 0.961908 0.214786
vt 0.772455 0.856809
vt 0.712575 0.785214
vt 0.961908 0.429572
vt 0.712575 0.856809
vt 0.961908 0.214786
vt 1.000000 0.486900
vt 0.173653 0.787548
vt 0.898204 0.701686
vt 0.826347 0.785214
vt 0.985030 0.701686
vt 0.287425 0.572762
vt 0.173653 0.859143
vt 0.395210 0.787548
vt 0.970060 0.701686
vt 0.970060 0.916472
vt 0.826347 0.856809
vt 0.215569 0.572762
vt 0.395210 0.572762
vt 0.143713 0.787548
vt 0.970060 0.916472
vt 0.218563 0.787548
vt 0.970060 0.701686
vt 0.215569 0.787548
vt 0.218563 0.859143
vt 0.985030 0.916472
vt 0.287425 0.787548
vt 1.000000 0.701686
vt 0.143713 0.859143
vt 0.898204 0.916472
vt 0.742515 0.856809
vt 0.931968 0.214786
vt 0.287425 0.572762
vt 0.802395 0.785214
vt 0.931968 0.000000
vt 0.287425 0.787548
vt 0.991848 0.214786
vt 0.802395 0.856809
vt 0.359281 0.787548
vt 0.742515 0.785214
vt 0.991848 0.429572
vt 0.359281 0.572762
vt 0.742515 0.785214
vt 0.991848 0.000000
vt 0.898204 0.486900
vt 0.931968 0.214786
vt 0.742515 0.856809
vt 0.970060 0.486900
vt 0.682635 0.785214
vt 0.931968 0.429572
vt 0.970060 0.701686
vt 0.682635 0.856809
vt 0.991848 0.214786
vt 0.898204 0.701686
vt 0.811377 0.785214
vt 1.000000 0.701686
vt 0.395210 0.785214
vt 0.985030 0.916472
vt 0.811377 0.856809
vt 0.467066 0.785214
vt 0.203593 0.787548
vt 0.985030 0.701686
vt 0.467066 1.000000
vt 0.203593 0.859143
vt 1.000000 0.916472
vt 0.395210 1.000000
vt 0.071856 0.871076
vt 0.826347 0.785214
vt 0.610778 0.785214
vt 0.000000 0.000000
vt 0.143713 0.871076
vt 0.610778 0.486900
vt 0.682635 0.785214
vt 0.000000 0.000000
vt 0.395210 0.486901
vt 0.000000 0.871076
vt 0.610778 0.964202
vt 0.000000 0.000000
vt 0.071856 0.871076
vt 0.610779 0.785214
vt 0.538922 0.964202
vt 0.000000 0.000000
vt 0.682635 0.964202
vt 0.000000 0.000000
vt 0.826347 0.880674
vt 0.395209 0.000000
vt 0.610778 0.964202
vt 0.000000 0.000000
vt 0.898204 0.880674
vt 0.860112 0.000000
vt 0.610778 0.785214
vt 0.000000 0.000000
vt 0.931968 0.393774
vt 0.395210 0.572762
vt 0.538922 0.785214
vt 0.000000 0.000000
vt 0.860112 0.393774
vt 0.395210 0.336882
vt 0.931968 0.000000
vt 0.826347 0.486900
vt 0.000000 0.286381
vt 0.860112 0.000000
vt 0.898204 0.486900
vt 0.860112 0.486900
s 1
usemtl æè´¨.006
f 9/21/1 4/7/1 1/1/1 12/30/1
f 7/15/2 3/5/2 4/8/2 9/22/2
f 5/9/3 2/3/3 3/6/3 7/16/3
f 12/31/4 1/2/4 2/4/4 5/10/4
f 24/62/4 11/27/4 6/12/4 17/41/4
f 17/42/3 6/13/3 8/18/3 19/47/3
f 19/48/2 8/19/2 10/24/2 21/53/2
f 21/54/1 10/25/1 11/28/1 24/63/1
f 31/83/1 15/37/1 16/39/1 32/86/1
f 30/80/5 14/35/2 15/38/2 31/84/5
f 29/77/3 13/33/3 14/36/3 30/81/3
f 32/87/6 16/40/4 13/34/4 29/78/6
f 35/95/1 22/56/1 23/59/1 36/98/1
f 34/92/2 20/50/2 22/57/2 35/96/2
f 33/89/3 18/44/3 20/51/3 34/93/3
f 36/99/6 23/60/6 18/45/6 33/90/6
f 15/37/1 28/74/1 25/65/1 16/39/1
f 14/35/2 27/71/2 28/75/2 15/38/2
f 13/33/3 26/68/3 27/72/3 14/36/3
f 16/40/4 25/66/4 26/69/4 13/34/4
f 28/76/7 27/73/7 26/70/7 25/67/7
f 32/88/8 29/79/8 30/82/8 31/85/8
f 11/29/7 10/26/7 8/20/7 6/14/7
f 21/55/8 24/64/8 17/43/8 19/49/8
f 36/100/8 33/91/8 34/94/8 35/97/8
f 22/58/7 20/52/7 18/46/7 23/61/7
f 12/32/8 5/11/8 7/17/8 9/23/8
f 4/7/1 38/105/1 37/101/1 1/1/1
f 3/5/2 39/109/2 38/106/2 4/8/2
f 2/3/3 40/113/3 39/110/3 3/6/3
f 1/2/4 37/102/4 40/114/4 2/4/4
f 39/111/8 40/115/8 44/129/8 43/125/8
f 37/103/8 38/107/8 41/117/8 42/121/8
f 40/116/9 37/104/9 42/122/7 44/130/9
f 38/108/7 39/112/10 43/126/7 41/118/7
f 43/127/11 44/131/11 46/136/11 45/133/11
f 42/123/12 41/119/12 45/134/12 46/137/12
f 44/132/4 42/124/4 46/138/4
f 41/120/2 43/128/2 45/135/2
