# Blender 3.3.1
# www.blender.org
mtllib arrow_up.mtl
o Cube
v 0.047459 -0.000000 0.312646
v -0.225555 0.000000 -0.221641
v -0.047459 0.000000 -0.312646
v 0.225555 -0.000000 0.221641
v -0.225555 -0.333333 -0.221641
v -0.225555 -0.666667 -0.221641
v -0.047459 -0.333333 -0.312646
v -0.047459 -0.666667 -0.312646
v 0.225555 -0.333333 0.221641
v 0.225555 -0.666667 0.221641
v 0.047459 -0.666667 0.312646
v 0.047459 -0.333333 0.312646
v -0.225555 -0.500000 -0.221641
v -0.047459 -0.500000 -0.312646
v 0.225555 -0.500000 0.221641
v 0.047459 -0.500000 0.312646
v -0.225555 -0.750000 -0.221641
v -0.225555 -0.833333 -0.221641
v -0.047459 -0.750000 -0.312646
v -0.047459 -0.833333 -0.312646
v 0.225555 -0.750000 0.221641
v 0.225555 -0.833333 0.221641
v 0.047459 -0.833333 0.312646
v 0.047459 -0.750000 0.312646
v 0.047459 -0.416667 0.312646
v -0.225555 -0.416667 -0.221641
v -0.047459 -0.416667 -0.312646
v 0.225555 -0.416667 0.221641
v -0.225555 -0.583333 -0.221641
v -0.047459 -0.583333 -0.312646
v 0.225555 -0.583333 0.221641
v 0.047459 -0.583333 0.312646
v -0.225555 -0.875000 -0.221641
v -0.047459 -0.875000 -0.312646
v 0.225555 -0.875000 0.221641
v 0.047459 -0.875000 0.312646
v 0.047459 0.500000 0.312646
v 0.225555 0.500000 0.221641
v -0.047459 0.500000 -0.312646
v -0.225555 0.500000 -0.221641
v 0.453066 0.500000 0.666882
v 0.274971 0.500000 0.757886
v -0.274971 0.500000 -0.757886
v -0.453066 0.500000 -0.666881
v 0.089048 1.600000 -0.045502
v -0.089048 1.600000 0.045503
vn 0.4550 -0.0000 0.8905
vn 0.8905 -0.0000 -0.4550
vn -0.4550 -0.0000 -0.8905
vn -0.8905 -0.0000 0.4550
vn -0.0000 1.0000 -0.0000
vn -0.0000 -1.0000 -0.0000
vn -0.0001 1.0000 -0.0001
vn -0.3680 0.5882 -0.7202
vn 0.3680 0.5882 0.7202
vt 0.071856 0.692088
vt 0.826347 0.606226
vt 0.071856 0.692088
vt 0.610778 0.606226
vt 0.395210 0.665889
vt 0.000000 0.692088
vt 0.143713 0.692088
vt 0.610778 0.665889
vt 0.071856 0.572762
vt 0.610778 0.486900
vt 0.467066 0.785214
vt 0.970060 0.486900
vt 0.203593 0.787548
vt 0.215569 0.572762
vt 0.395210 0.785214
vt 0.000000 0.572762
vt 0.538922 0.785214
vt 0.203593 0.859143
vt 0.365269 0.787548
vt 0.143713 0.572762
vt 0.143713 0.572762
vt 0.610778 0.785214
vt 0.538922 1.000000
vt 0.365269 0.572762
vt 0.173653 0.787548
vt 0.143713 0.787548
vt 0.970060 0.701686
vt 0.173653 0.859143
vt 0.215569 0.787548
vt 0.071856 0.572762
vt 0.826347 0.486900
vt 0.467066 1.000000
vt 0.772455 0.785214
vt 0.961908 0.000000
vt 0.961908 0.214786
vt 0.772455 0.856809
vt 0.712575 0.785214
vt 0.961908 0.429572
vt 0.712575 0.856809
vt 0.961908 0.214786
vt 1.000000 0.486900
vt 0.173653 0.787548
vt 0.898204 0.701686
vt 0.826347 0.785214
vt 0.985030 0.701686
vt 0.287425 0.572762
vt 0.173653 0.859143
vt 0.395210 0.787548
vt 0.970060 0.701686
vt 0.970060 0.916472
vt 0.826347 0.856809
vt 0.215569 0.572762
vt 0.395210 0.572762
vt 0.143713 0.787548
vt 0.970060 0.916472
vt 0.218563 0.787548
vt 0.970060 0.701686
vt 0.215569 0.787548
vt 0.218563 0.859143
vt 0.985030 0.916472
vt 0.287425 0.787548
vt 1.000000 0.701686
vt 0.143713 0.859143
vt 0.898204 0.916472
vt 0.742515 0.856809
vt 0.931968 0.214786
vt 0.287425 0.572762
vt 0.802395 0.785214
vt 0.931968 0.000000
vt 0.287425 0.787548
vt 0.991848 0.214786
vt 0.802395 0.856809
vt 0.359281 0.787548
vt 0.742515 0.785214
vt 0.991848 0.429572
vt 0.359281 0.572762
vt 0.742515 0.785214
vt 0.991848 0.000000
vt 0.898204 0.486900
vt 0.931968 0.214786
vt 0.742515 0.856809
vt 0.970060 0.486900
vt 0.682635 0.785214
vt 0.931968 0.429572
vt 0.970060 0.701686
vt 0.682635 0.856809
vt 0.991848 0.214786
vt 0.898204 0.701686
vt 0.811377 0.785214
vt 1.000000 0.701686
vt 0.395210 0.785214
vt 0.985030 0.916472
vt 0.811377 0.856809
vt 0.467066 0.785214
vt 0.203593 0.787548
vt 0.985030 0.701686
vt 0.467066 1.000000
vt 0.203593 0.859143
vt 1.000000 0.916472
vt 0.395210 1.000000
vt 0.071856 0.871076
vt 0.826347 0.785214
vt 0.610778 0.785214
vt 0.000000 0.000000
vt 0.143713 0.871076
vt 0.610778 0.486900
vt 0.682635 0.785214
vt 0.000000 0.000000
vt 0.395210 0.486901
vt 0.000000 0.871076
vt 0.610778 0.964202
vt 0.000000 0.000000
vt 0.071856 0.871076
vt 0.610779 0.785214
vt 0.538922 0.964202
vt 0.000000 0.000000
vt 0.682635 0.964202
vt 0.000000 0.000000
vt 0.826347 0.880674
vt 0.395209 0.000000
vt 0.610778 0.964202
vt 0.000000 0.000000
vt 0.898204 0.880674
vt 0.860112 0.000000
vt 0.610778 0.785214
vt 0.000000 0.000000
vt 0.931968 0.393774
vt 0.395210 0.572762
vt 0.538922 0.785214
vt 0.000000 0.000000
vt 0.860112 0.393774
vt 0.395210 0.336882
vt 0.931968 0.000000
vt 0.826347 0.486900
vt 0.000000 0.286381
vt 0.860112 0.000000
vt 0.898204 0.486900
vt 0.860112 0.486900
s 1
usemtl æè´¨.007
f 9/21/1 4/7/1 1/1/1 12/30/1
f 7/15/2 3/5/2 4/8/2 9/22/2
f 5/9/3 2/3/3 3/6/3 7/16/3
f 12/31/4 1/2/4 2/4/4 5/10/4
f 24/62/4 11/27/4 6/12/4 17/41/4
f 17/42/3 6/13/3 8/18/3 19/47/3
f 19/48/2 8/19/2 10/24/2 21/53/2
f 21/54/1 10/25/1 11/28/1 24/63/1
f 31/83/1 15/37/1 16/39/1 32/86/1
f 30/80/2 14/35/2 15/38/2 31/84/2
f 29/77/3 13/33/3 14/36/3 30/81/3
f 32/87/4 16/40/4 13/34/4 29/78/4
f 35/95/1 22/56/1 23/59/1 36/98/1
f 34/92/2 20/50/2 22/57/2 35/96/2
f 33/89/3 18/44/3 20/51/3 34/93/3
f 36/99/4 23/60/4 18/45/4 33/90/4
f 15/37/1 28/74/1 25/65/1 16/39/1
f 14/35/2 27/71/2 28/75/2 15/38/2
f 13/33/3 26/68/3 27/72/3 14/36/3
f 16/40/4 25/66/4 26/69/4 13/34/4
f 28/76/5 27/73/5 26/70/5 25/67/5
f 32/88/6 29/79/6 30/82/6 31/85/6
f 11/29/5 10/26/5 8/20/5 6/14/5
f 21/55/6 24/64/6 17/43/6 19/49/6
f 36/100/6 33/91/6 34/94/6 35/97/6
f 22/58/5 20/52/5 18/46/5 23/61/5
f 12/32/6 5/11/6 7/17/6 9/23/6
f 4/7/1 38/105/1 37/101/1 1/1/1
f 3/5/2 39/109/2 38/106/2 4/8/2
f 2/3/3 40/113/3 39/110/3 3/6/3
f 1/2/4 37/102/4 40/114/4 2/4/4
f 39/111/6 40/115/6 44/129/6 43/125/6
f 37/103/6 38/107/6 41/117/6 42/121/6
f 40/116/5 37/104/5 42/122/5 44/130/7
f 38/108/5 39/112/5 43/126/5 41/118/5
f 43/127/8 44/131/8 46/136/8 45/133/8
f 42/123/9 41/119/9 45/134/9 46/137/9
f 44/132/4 42/124/4 46/138/4
f 41/120/2 43/128/2 45/135/2
