# Blender 3.3.1
# www.blender.org
mtllib arrow_down.mtl
o Cube
v -0.208446 -0.001340 -0.237799
v 0.024533 -0.013422 0.314989
v 0.208446 0.001340 0.237799
v -0.024533 0.013422 -0.314989
v 0.004457 0.318935 0.330715
v -0.015621 0.651291 0.346441
v 0.188369 0.333697 0.253525
v 0.168292 0.666053 0.269250
v -0.044611 0.345778 -0.299263
v -0.064688 0.678134 -0.283538
v -0.248601 0.663372 -0.206347
v -0.228524 0.331016 -0.222072
v -0.005581 0.485113 0.338577
v 0.178331 0.499875 0.261388
v -0.054649 0.511956 -0.291401
v -0.238562 0.497194 -0.214210
v -0.020640 0.734380 0.350371
v -0.025659 0.817469 0.354303
v 0.163273 0.749142 0.273182
v 0.158254 0.832231 0.277113
v -0.069708 0.761223 -0.279607
v -0.074727 0.844312 -0.275674
v -0.258639 0.829550 -0.198485
v -0.253620 0.746461 -0.202416
v -0.233543 0.414105 -0.218142
v -0.000562 0.402024 0.334646
v 0.183350 0.416786 0.257455
v -0.049630 0.428867 -0.295332
v -0.010601 0.568202 0.342508
v 0.173312 0.582964 0.265319
v -0.059669 0.595045 -0.287469
v -0.243581 0.580283 -0.210279
v -0.028169 0.859014 0.356268
v 0.155744 0.873776 0.279078
v -0.077237 0.885857 -0.273710
v -0.261149 0.871095 -0.196519
v -0.178331 -0.499875 -0.261388
v 0.005581 -0.485113 -0.338577
v 0.238562 -0.497194 0.214210
v 0.054649 -0.511956 0.291401
v -0.188568 -0.475045 -0.799233
v -0.372481 -0.489807 -0.722044
v 0.432713 -0.507262 0.674867
v 0.248800 -0.522024 0.752058
v 0.188327 -1.587929 -0.114077
v 0.004415 -1.602691 -0.036888
vn -0.3883 0.0201 -0.9213
vn 0.9196 0.0738 -0.3859
vn 0.3883 -0.0201 0.9213
vn -0.9196 -0.0738 0.3859
vn -0.9196 -0.0738 0.3860
vn 0.9196 0.0738 -0.3860
vn 0.0602 -0.9971 -0.0472
vn -0.0602 0.9971 0.0472
vn 0.0603 -0.9971 -0.0473
vn 0.0603 -0.9971 -0.0472
vn 0.3495 -0.6027 0.7174
vn -0.2786 -0.5702 -0.7728
vt 0.071856 0.692088
vt 0.826347 0.606226
vt 0.071856 0.692088
vt 0.610778 0.606226
vt 0.395210 0.665889
vt 0.000000 0.692088
vt 0.143713 0.692088
vt 0.610778 0.665889
vt 0.071856 0.572762
vt 0.610778 0.486900
vt 0.467066 0.785214
vt 0.970060 0.486900
vt 0.203593 0.787548
vt 0.215569 0.572762
vt 0.395210 0.785214
vt 0.000000 0.572762
vt 0.538922 0.785214
vt 0.203593 0.859143
vt 0.365269 0.787548
vt 0.143713 0.572762
vt 0.143713 0.572762
vt 0.610778 0.785214
vt 0.538922 1.000000
vt 0.365269 0.572762
vt 0.173653 0.787548
vt 0.143713 0.787548
vt 0.970060 0.701686
vt 0.173653 0.859143
vt 0.215569 0.787548
vt 0.071856 0.572762
vt 0.826347 0.486900
vt 0.467066 1.000000
vt 0.772455 0.785214
vt 0.961908 0.000000
vt 0.961908 0.214786
vt 0.772455 0.856809
vt 0.712575 0.785214
vt 0.961908 0.429572
vt 0.712575 0.856809
vt 0.961908 0.214786
vt 1.000000 0.486900
vt 0.173653 0.787548
vt 0.898204 0.701686
vt 0.826347 0.785214
vt 0.985030 0.701686
vt 0.287425 0.572762
vt 0.173653 0.859143
vt 0.395210 0.787548
vt 0.970060 0.701686
vt 0.970060 0.916472
vt 0.826347 0.856809
vt 0.215569 0.572762
vt 0.395210 0.572762
vt 0.143713 0.787548
vt 0.970060 0.916472
vt 0.218563 0.787548
vt 0.970060 0.701686
vt 0.215569 0.787548
vt 0.218563 0.859143
vt 0.985030 0.916472
vt 0.287425 0.787548
vt 1.000000 0.701686
vt 0.143713 0.859143
vt 0.898204 0.916472
vt 0.742515 0.856809
vt 0.931968 0.214786
vt 0.287425 0.572762
vt 0.802395 0.785214
vt 0.931968 0.000000
vt 0.287425 0.787548
vt 0.991848 0.214786
vt 0.802395 0.856809
vt 0.359281 0.787548
vt 0.742515 0.785214
vt 0.991848 0.429572
vt 0.359281 0.572762
vt 0.742515 0.785214
vt 0.991848 0.000000
vt 0.898204 0.486900
vt 0.931968 0.214786
vt 0.742515 0.856809
vt 0.970060 0.486900
vt 0.682635 0.785214
vt 0.931968 0.429572
vt 0.970060 0.701686
vt 0.682635 0.856809
vt 0.991848 0.214786
vt 0.898204 0.701686
vt 0.811377 0.785214
vt 1.000000 0.701686
vt 0.395210 0.785214
vt 0.985030 0.916472
vt 0.811377 0.856809
vt 0.467066 0.785214
vt 0.203593 0.787548
vt 0.985030 0.701686
vt 0.467066 1.000000
vt 0.203593 0.859143
vt 1.000000 0.916472
vt 0.395210 1.000000
vt 0.071856 0.871076
vt 0.826347 0.785214
vt 0.610778 0.785214
vt 0.000000 0.000000
vt 0.143713 0.871076
vt 0.610778 0.486900
vt 0.682635 0.785214
vt 0.000000 0.000000
vt 0.395210 0.486901
vt 0.000000 0.871076
vt 0.610778 0.964202
vt 0.000000 0.000000
vt 0.071856 0.871076
vt 0.610779 0.785214
vt 0.538922 0.964202
vt 0.000000 0.000000
vt 0.682635 0.964202
vt 0.000000 0.000000
vt 0.826347 0.880674
vt 0.395209 0.000000
vt 0.610778 0.964202
vt 0.000000 0.000000
vt 0.898204 0.880674
vt 0.860112 0.000000
vt 0.610778 0.785214
vt 0.000000 0.000000
vt 0.931968 0.393774
vt 0.395210 0.572762
vt 0.538922 0.785214
vt 0.000000 0.000000
vt 0.860112 0.393774
vt 0.395210 0.336882
vt 0.931968 0.000000
vt 0.826347 0.486900
vt 0.000000 0.286381
vt 0.860112 0.000000
vt 0.898204 0.486900
vt 0.860112 0.486900
s 1
usemtl æè´¨.008
f 9/21/1 4/7/1 1/1/1 12/30/1
f 7/15/2 3/5/2 4/8/2 9/22/2
f 5/9/3 2/3/3 3/6/3 7/16/3
f 12/31/4 1/2/4 2/4/4 5/10/4
f 24/62/5 11/27/5 6/12/5 17/41/5
f 17/42/3 6/13/3 8/18/3 19/47/3
f 19/48/2 8/19/2 10/24/2 21/53/2
f 21/54/1 10/25/1 11/28/1 24/63/1
f 31/83/1 15/37/1 16/39/1 32/86/1
f 30/80/2 14/35/2 15/38/2 31/84/2
f 29/77/3 13/33/3 14/36/3 30/81/3
f 32/87/5 16/40/5 13/34/5 29/78/5
f 35/95/1 22/56/1 23/59/1 36/98/1
f 34/92/2 20/50/2 22/57/2 35/96/2
f 33/89/3 18/44/3 20/51/3 34/93/3
f 36/99/4 23/60/4 18/45/4 33/90/4
f 15/37/1 28/74/1 25/65/1 16/39/1
f 14/35/2 27/71/6 28/75/6 15/38/2
f 13/33/3 26/68/3 27/72/3 14/36/3
f 16/40/5 25/66/5 26/69/5 13/34/5
f 28/76/7 27/73/7 26/70/7 25/67/7
f 32/88/8 29/79/8 30/82/8 31/85/8
f 11/29/7 10/26/7 8/20/7 6/14/7
f 21/55/8 24/64/8 17/43/8 19/49/8
f 36/100/8 33/91/8 34/94/8 35/97/8
f 22/58/7 20/52/7 18/46/7 23/61/7
f 12/32/8 5/11/8 7/17/8 9/23/8
f 4/7/1 38/105/1 37/101/1 1/1/1
f 3/5/2 39/109/2 38/106/2 4/8/2
f 2/3/3 40/113/3 39/110/3 3/6/3
f 1/2/4 37/102/4 40/114/4 2/4/4
f 39/111/8 40/115/8 44/129/8 43/125/8
f 37/103/8 38/107/8 41/117/8 42/121/8
f 40/116/7 37/104/7 42/122/9 44/130/10
f 38/108/7 39/112/7 43/126/10 41/118/10
f 43/127/11 44/131/11 46/136/11 45/133/11
f 42/123/12 41/119/12 45/134/12 46/137/12
f 44/132/4 42/124/4 46/138/4
f 41/120/2 43/128/2 45/135/2
